<?xml version="1.0" encoding="UTF-8"?>
<svg id="Layer_1" xmlns="http://www.w3.org/2000/svg" version="1.1" viewBox="0 0 200 200">
  <!-- Generator: Adobe Illustrator 29.8.7, SVG Export Plug-In . SVG Version: 2.1.1 Build 1)  -->
  <defs>
    <style>
      .st0 {
        fill: #2b2b2b;
      }

      .st1 {
        fill: #981b1e;
      }

      @media (prefers-color-scheme: dark) {
        .st0 { fill: #F7F1E3; }
        .st1 { fill: #ff9395; }
      }

    </style>
  </defs>
  <path class="st0" d="M9.72,136.17c0-.99,1.1-1.71,3.3-2.16,2.89-.61,4.94-1.5,6.15-2.68,1.21-1.18,1.82-3.02,1.82-5.52v-51.49c0-2.58-.53-4.42-1.59-5.53-1.06-1.1-3-1.95-5.81-2.56-2.2-.46-3.3-1.21-3.3-2.28,0-.46.27-.81.8-1.08.53-.27,1.25-.4,2.16-.4,2.66,0,5.96.08,9.91.23,3.8.15,6.84.23,9.11.23,5.09,0,11.35-.07,18.8-.23,2.51,0,4.65-.06,6.44-.17,1.78-.11,2.79-.17,3.02-.17.53,0,1.03.11,1.48.34.46.23.72.57.8,1.03l.57,3.42c.83,4.33,1.25,7.44,1.25,9.34,0,.68-.17,1.18-.51,1.48-.34.3-.7.46-1.08.46-.68,0-1.22-.46-1.59-1.37-.08-.3-.32-1.04-.74-2.22-.42-1.18-.82-2.14-1.2-2.91-.38-.76-.76-1.37-1.14-1.82-2.05-2.12-4.63-3.19-7.75-3.19h-12.76c-1.06,0-2.13.4-3.19,1.2-1.06.8-1.59,1.77-1.59,2.91v23.24c0,.76.23,1.37.68,1.82.46.46,1.03.68,1.71.68h10.71c2.05,0,3.51-.46,4.39-1.37.87-.91,1.61-2.47,2.22-4.67.53-1.52,1.25-2.28,2.16-2.28.38,0,.72.19,1.03.57.3.38.46.87.46,1.48-.3,4.25-.46,7.03-.46,8.32,0,2.81.11,5.81.34,9v.46c0,1.22-.34,1.82-1.03,1.82-1.22,0-2.13-1.1-2.73-3.3-.53-2.05-1.2-3.55-1.99-4.5-.8-.95-1.92-1.42-3.36-1.42h-10.59c-1.29,0-2.2.21-2.73.63-.53.42-.8,1.2-.8,2.34v21.76c0,2.58.55,4.41,1.65,5.47,1.1,1.06,2.87,1.6,5.3,1.6h9c4.4,0,7.63-.72,9.68-2.16,1.21-.83,2.32-1.94,3.3-3.3.99-1.37,2.05-3.23,3.19-5.58.61-.99,1.25-1.44,1.94-1.37.83,0,1.25.61,1.25,1.82s-.38,3.21-1.14,5.98c-.76,2.77-1.56,5.34-2.39,7.69-.53,1.22-1.18,1.82-1.94,1.82-5.32,0-11.01-.11-17.09-.34-2.05-.08-4.69-.15-7.92-.23-3.23-.07-6.97-.11-11.22-.11-2.13,0-4.29.11-6.49.34-4.33.23-6.84.34-7.52.34-1.98,0-2.96-.46-2.96-1.37Z"/>
  <path class="st1" d="M80.46,136.4c-2.36-.91-3.68-1.37-3.99-1.37-.61,0-1.44.23-2.51.68-1.22.84-2.01,1.25-2.39,1.25s-.87-.27-1.48-.8c-.61-.53-.91-1.03-.91-1.48,0-.3.38-1.41,1.14-3.3,2.35-5.62,3.8-10.48,4.33-14.58.15-.99.4-1.69.74-2.11.34-.42.85-.63,1.54-.63s1.14.4,1.37,1.2c.23.8.34,2.18.34,4.16,0,4.48,1.14,8.16,3.42,11.05,2.28,2.89,5.7,4.33,10.25,4.33,4.78,0,8.72-1.35,11.79-4.04,3.07-2.69,4.61-6.28,4.61-10.77,0-2.81-.7-5.37-2.11-7.69-1.41-2.32-4.08-5.3-8.03-8.94-3.87-3.49-6.78-6.8-8.71-9.91-1.94-3.11-2.91-6.72-2.91-10.82s1.08-7.67,3.25-10.94c2.16-3.26,5.14-5.81,8.94-7.63,3.8-1.82,8.05-2.73,12.76-2.73,2.66,0,5.89.53,9.68,1.59,1.52.46,2.39.76,2.62.91.38.15.97.34,1.77.57.8.23,1.42.34,1.88.34.68,0,1.48-.19,2.39-.57.84-.53,1.6-.8,2.28-.8.61,0,1.03.23,1.25.68s.23.91,0,1.37c-2.58,4.41-4.41,9.76-5.47,16.06-.15.99-.44,1.79-.85,2.39-.42.61-.82.91-1.2.91-.68,0-1.14-.28-1.37-.85-.23-.57-.34-1.46-.34-2.68,0-5.09-1.21-9.07-3.64-11.96-2.43-2.89-5.66-4.33-9.68-4.33-2.58,0-4.94.67-7.06,1.99-2.13,1.33-3.78,3.06-4.96,5.18-1.18,2.13-1.77,4.33-1.77,6.61,0,2.89.78,5.56,2.34,8.03,1.56,2.47,4.39,5.56,8.49,9.28,4.18,3.65,7.16,6.95,8.94,9.91,1.78,2.96,2.68,6.15,2.68,9.57,0,4.18-1.06,8.03-3.19,11.56-2.13,3.53-5.2,6.34-9.23,8.43-4.03,2.09-8.81,3.13-14.35,3.13-4.63,0-8.85-.76-12.64-2.28Z"/>
  <path class="st0" d="M136.28,136.06c0-.53.27-.97.8-1.31.53-.34,1.37-.63,2.51-.85,2.89-.53,4.86-1.37,5.92-2.51,1.06-1.14,1.59-3.04,1.59-5.7v-49.1c0-3.26-.48-5.68-1.42-7.23-.95-1.56-2.75-2.6-5.41-3.13-2.28-.46-3.42-1.21-3.42-2.28,0-.46.28-.81.85-1.08.57-.27,1.27-.4,2.11-.4,2.66,0,5.88.08,9.68.23,3.8.15,6.8.23,9,.23h16.41c2.35,0,5.05-.23,8.09-.68,2.28-.3,3.72-.46,4.33-.46.53,0,1.04.11,1.54.34.49.23.78.57.85,1.03.15,2.13.28,4.39.4,6.78.11,2.39.17,4.42.17,6.09,0,.68-.11,1.25-.34,1.71s-.5.68-.8.68c-.46,0-.87-.15-1.25-.46-.38-.3-.61-.68-.68-1.14-.84-3.04-1.86-5.28-3.08-6.72-1.98-1.97-4.6-2.96-7.86-2.96h-12.42c-1.67,0-2.85.49-3.53,1.48-.68.99-1.06,2.36-1.14,4.1v21.64c0,1.67.57,2.51,1.71,2.51l7.4-.11c1.29-.08,2.96-.11,5.01-.11,3.11,0,5.43-1.71,6.95-5.13.15-.38.46-.8.91-1.25s.83-.68,1.14-.68c.38,0,.74.19,1.08.57.34.38.47.87.4,1.48-.23,2.81-.34,5.13-.34,6.95s.11,4.41.34,7.75c0,1.59-.34,2.39-1.02,2.39s-1.25-.28-1.71-.85c-.46-.57-.8-1.2-1.03-1.88-.99-3.26-2.81-4.9-5.47-4.9l-5.58-.11c-3.19,0-5.58.04-7.18.11-.76.08-1.39.34-1.88.8-.49.46-.74,1.14-.74,2.05,0,9.57.11,16.79.34,21.65.07,2.51.68,4.39,1.82,5.64,1.14,1.25,3.15,2.15,6.04,2.68,1.14.23,1.97.51,2.51.85.53.34.8.78.8,1.31,0,.91-.95,1.37-2.85,1.37-1.44,0-2.92-.06-4.44-.17-1.52-.11-2.62-.17-3.3-.17-1.9-.23-3.84-.34-5.81-.34-2.43,0-4.78.11-7.06.34-.76,0-1.94.06-3.53.17-1.59.11-3.12.17-4.56.17-1.9,0-2.85-.46-2.85-1.37Z"/>
</svg>